#define icon2_width 51
#define icon2_height 52
static unsigned char icon2_bits[] = {
   0x00, 0x00, 0x00, 0x00, 0x00, 0x00, 0x00, 0x00, 0x00, 0x00, 0x00, 0x00,
   0x00, 0x00, 0x00, 0x00, 0x00, 0x00, 0x00, 0x00, 0x00, 0x00, 0x00, 0x00,
   0x00, 0x00, 0x00, 0x00, 0x00, 0x00, 0x00, 0x00, 0x00, 0x00, 0x00, 0x00,
   0x00, 0x00, 0x00, 0x00, 0x00, 0x00, 0x00, 0x00, 0x80, 0x03, 0x00, 0x00,
   0x00, 0x00, 0x00, 0xe0, 0x08, 0x00, 0x00, 0x00, 0x00, 0x00, 0x38, 0x33,
   0x00, 0x00, 0x00, 0x00, 0x00, 0x68, 0xc4, 0x00, 0x00, 0x00, 0x00, 0x00,
   0x8e, 0x30, 0x03, 0x00, 0x00, 0x00, 0x00, 0x32, 0x86, 0x18, 0x00, 0x00,
   0x00, 0x00, 0xc0, 0x18, 0x63, 0x00, 0x00, 0x00, 0x00, 0x02, 0x63, 0x8c,
   0x01, 0x00, 0x00, 0x00, 0x00, 0x8c, 0x31, 0x06, 0x00, 0x00, 0x00, 0x02,
   0x30, 0xc6, 0x08, 0x00, 0x00, 0x00, 0x01, 0xc0, 0x18, 0x09, 0x00, 0x00,
   0xc0, 0x03, 0x00, 0x63, 0x09, 0x00, 0x00, 0x30, 0x02, 0x00, 0x4c, 0x09,
   0x00, 0x00, 0x0e, 0x02, 0x00, 0x50, 0x09, 0x00, 0x80, 0x41, 0x01, 0x00,
   0x50, 0x09, 0x00, 0x60, 0x00, 0x02, 0x00, 0x50, 0x19, 0x00, 0xe0, 0x80,
   0x02, 0x00, 0x50, 0x1d, 0x00, 0x20, 0x03, 0x02, 0x00, 0x50, 0x13, 0x00,
   0x20, 0x4e, 0x01, 0x00, 0xd0, 0x14, 0x00, 0x60, 0x70, 0x02, 0x00, 0xb8,
   0x10, 0x00, 0x20, 0xc9, 0x01, 0x00, 0x0e, 0x12, 0x00, 0x20, 0x11, 0x03,
   0x00, 0x43, 0x12, 0x00, 0x20, 0x44, 0x0e, 0xe0, 0x88, 0x10, 0x00, 0xa0,
   0x48, 0x30, 0x18, 0x10, 0x15, 0x00, 0x20, 0x21, 0xe5, 0x06, 0x22, 0x10,
   0x00, 0x20, 0x0a, 0x80, 0x01, 0x84, 0x12, 0x00, 0xa0, 0xa0, 0x0a, 0x41,
   0x50, 0x10, 0x00, 0x20, 0x15, 0xa0, 0x01, 0x02, 0x15, 0x00, 0x20, 0xa0,
   0x0a, 0x03, 0x28, 0x10, 0x00, 0x60, 0x05, 0x20, 0x81, 0xa0, 0x12, 0x00,
   0xc0, 0xa8, 0x0a, 0x01, 0x02, 0x14, 0x00, 0x80, 0x03, 0x50, 0x01, 0xa8,
   0x18, 0x00, 0x00, 0x4e, 0x01, 0x03, 0x02, 0x07, 0x00, 0x00, 0x18, 0x24,
   0x01, 0xd0, 0x01, 0x00, 0x00, 0x60, 0x00, 0x41, 0x64, 0x00, 0x00, 0x00,
   0xc0, 0x4b, 0x01, 0x1c, 0x00, 0x00, 0x00, 0x00, 0x06, 0x03, 0x07, 0x00,
   0x00, 0x00, 0x00, 0x1c, 0xc1, 0x01, 0x00, 0x00, 0x00, 0x00, 0x30, 0x71,
   0x00, 0x00, 0x00, 0x00, 0x00, 0xc0, 0x19, 0x00, 0x00, 0x00, 0x00, 0x00,
   0x00, 0x07, 0x00, 0x00, 0x00, 0x00, 0x00, 0x00, 0x00, 0x00, 0x00, 0x00,
   0x00, 0x00, 0x00, 0x00, 0x00, 0x00, 0x00, 0x00, 0x00, 0x00, 0x00, 0x00,
   0x00, 0x00, 0x00, 0x00, 0x00, 0x00, 0x00, 0x00, 0x00, 0x00, 0x00, 0x00,
   0x00, 0x00, 0x00, 0x00 };
