#define icon_width 100
#define icon_height 88
#define icon_x_hot 0
#define icon_y_hot 0
static unsigned char icon_bits[] = {
   0x00, 0x00, 0x00, 0x00, 0x00, 0x00, 0x00, 0x00, 0x00, 0x00, 0x00, 0x00,
   0x00, 0x00, 0x00, 0x00, 0x00, 0x00, 0x00, 0x00, 0x00, 0x00, 0x00, 0x00,
   0x00, 0x00, 0x00, 0x00, 0x00, 0x00, 0x00, 0x00, 0x00, 0x00, 0x00, 0x00,
   0x00, 0x00, 0x00, 0x00, 0x00, 0x00, 0x00, 0x00, 0xfe, 0x7f, 0x00, 0x00,
   0x00, 0x00, 0x00, 0x00, 0x00, 0x00, 0x00, 0x00, 0xc0, 0xff, 0xff, 0x03,
   0x00, 0x00, 0x00, 0x00, 0x00, 0x00, 0x00, 0x00, 0x00, 0xf0, 0xff, 0xff,
   0x0f, 0x00, 0x00, 0x00, 0x00, 0x00, 0x00, 0x00, 0x00, 0x00, 0xfc, 0xff,
   0xff, 0x3f, 0x00, 0x00, 0x00, 0x00, 0x00, 0x00, 0x00, 0x00, 0x00, 0xfe,
   0xff, 0xff, 0x7f, 0x00, 0x00, 0x00, 0x00, 0x00, 0x00, 0x00, 0x00, 0x00,
   0xff, 0x1f, 0xf8, 0xff, 0x01, 0x00, 0x00, 0x00, 0x00, 0x00, 0x00, 0x00,
   0x80, 0xff, 0x03, 0xc0, 0xff, 0x03, 0x00, 0x00, 0x00, 0x00, 0x00, 0x00,
   0x00, 0xc0, 0xff, 0x00, 0x00, 0xff, 0x03, 0x00, 0x00, 0x00, 0x00, 0x00,
   0x00, 0x00, 0xc0, 0x7f, 0x00, 0x00, 0xfe, 0x07, 0x00, 0x00, 0x00, 0x00,
   0x00, 0x00, 0x00, 0xe0, 0x3f, 0x00, 0x00, 0xfc, 0x07, 0x00, 0x00, 0x00,
   0x00, 0x00, 0x00, 0x00, 0xe0, 0x3f, 0x00, 0x00, 0xf8, 0x07, 0x00, 0x00,
   0x00, 0x00, 0x00, 0x00, 0x00, 0xe0, 0x1f, 0x00, 0x00, 0xf8, 0x07, 0x00,
   0x00, 0x00, 0x00, 0x00, 0x00, 0x00, 0xe0, 0x1f, 0x00, 0x00, 0xf8, 0x0f,
   0x00, 0x00, 0x00, 0x00, 0x00, 0x00, 0x00, 0xe0, 0x1f, 0x00, 0x00, 0xf8,
   0x07, 0x00, 0x00, 0x00, 0x00, 0x00, 0x00, 0x00, 0xe0, 0x1f, 0x00, 0x00,
   0xf8, 0x0f, 0x00, 0x00, 0x00, 0x00, 0x00, 0x00, 0x00, 0xe0, 0x1f, 0x00,
   0x00, 0xf8, 0x07, 0x00, 0x00, 0x00, 0x00, 0x00, 0x00, 0x00, 0xe0, 0x1f,
   0x00, 0x00, 0xf8, 0x07, 0x00, 0x00, 0x00, 0x00, 0x00, 0x00, 0x00, 0xe0,
   0x1f, 0x00, 0x00, 0xf8, 0x0f, 0x00, 0x00, 0x00, 0x00, 0x00, 0x00, 0x00,
   0xe0, 0x1f, 0x00, 0x00, 0xf8, 0x07, 0x00, 0x00, 0x00, 0x00, 0x00, 0x00,
   0x00, 0xe0, 0x1f, 0x00, 0xc0, 0xff, 0xff, 0x01, 0x00, 0x00, 0x00, 0x00,
   0x00, 0x00, 0xe0, 0x1f, 0x00, 0xc0, 0xff, 0xff, 0x01, 0x00, 0x00, 0x00,
   0x00, 0x00, 0x00, 0xe0, 0x1f, 0x00, 0x80, 0xff, 0x7f, 0x00, 0x00, 0x00,
   0x00, 0x00, 0x00, 0x00, 0xe0, 0x1f, 0x00, 0x00, 0xff, 0x7f, 0x00, 0x00,
   0x00, 0x00, 0x00, 0x00, 0x00, 0xe0, 0x1f, 0x00, 0x00, 0xfe, 0x3f, 0x00,
   0x00, 0x00, 0x00, 0x00, 0x00, 0x00, 0x00, 0x00, 0x00, 0x00, 0xfc, 0x1f,
   0x00, 0x00, 0x00, 0x00, 0x00, 0x00, 0x00, 0x00, 0x00, 0x00, 0x00, 0xf8,
   0x0f, 0x00, 0x00, 0x00, 0x00, 0x00, 0x00, 0x00, 0x00, 0x00, 0x00, 0x00,
   0xf8, 0x07, 0x00, 0x00, 0x00, 0x00, 0x00, 0x00, 0x00, 0x00, 0x00, 0x00,
   0x00, 0xf0, 0x03, 0x00, 0x00, 0x00, 0x00, 0x00, 0x00, 0x00, 0x00, 0x00,
   0x00, 0x00, 0xe0, 0x01, 0x00, 0x00, 0x00, 0x00, 0x00, 0x00, 0x00, 0x00,
   0x00, 0x00, 0x00, 0xc0, 0x00, 0x00, 0x00, 0x00, 0x00, 0x00, 0x00, 0x00,
   0x00, 0x00, 0x00, 0x00, 0x00, 0x00, 0x00, 0x00, 0x00, 0x00, 0x00, 0x00,
   0x00, 0x00, 0x00, 0x00, 0x00, 0x00, 0x00, 0x00, 0x00, 0x00, 0x00, 0x00,
   0x00, 0x00, 0x00, 0x00, 0x00, 0x00, 0x00, 0x00, 0x00, 0x00, 0x00, 0x00,
   0x00, 0x00, 0x00, 0x00, 0x00, 0x00, 0x00, 0x00, 0x00, 0x00, 0x00, 0x00,
   0x00, 0x00, 0x00, 0x00, 0x00, 0x00, 0x00, 0x00, 0x00, 0x00, 0x00, 0x00,
   0x00, 0x00, 0x00, 0x00, 0x80, 0x00, 0x00, 0x00, 0x00, 0x00, 0x00, 0x00,
   0x00, 0x00, 0x00, 0x00, 0x00, 0xd0, 0x01, 0x00, 0x00, 0x00, 0x00, 0xa0,
   0x03, 0x00, 0x00, 0x00, 0x00, 0x00, 0x50, 0x06, 0x00, 0x00, 0x00, 0x00,
   0xe0, 0x0c, 0x00, 0x00, 0x00, 0x00, 0x00, 0x9c, 0x39, 0x00, 0x00, 0x00,
   0x00, 0x28, 0x33, 0x00, 0x00, 0x00, 0x00, 0x00, 0x3a, 0x46, 0x00, 0x00,
   0x00, 0x00, 0x6c, 0xcc, 0x00, 0x00, 0x00, 0x00, 0x00, 0xc7, 0x98, 0x03,
   0x00, 0x00, 0x00, 0x8e, 0x31, 0x07, 0x00, 0x00, 0x00, 0x00, 0x19, 0x63,
   0x0c, 0x00, 0x00, 0x00, 0x32, 0xc6, 0x18, 0x00, 0x00, 0x00, 0x00, 0x61,
   0x8c, 0x31, 0x00, 0x00, 0x00, 0xc2, 0x18, 0x63, 0x00, 0x00, 0x00, 0x00,
   0x81, 0x31, 0xc6, 0x00, 0x00, 0x00, 0x02, 0x63, 0x8c, 0x01, 0x00, 0x00,
   0x00, 0x01, 0xc6, 0x18, 0x03, 0x00, 0x00, 0x02, 0x8c, 0x31, 0x06, 0x00,
   0x00, 0x00, 0x01, 0x18, 0x67, 0x02, 0x00, 0x00, 0x02, 0x30, 0xce, 0x0c,
   0x00, 0x00, 0x80, 0x01, 0xe0, 0x9c, 0x04, 0x00, 0x00, 0x01, 0xc0, 0x39,
   0x09, 0x00, 0x00, 0xe0, 0x00, 0x80, 0xb1, 0x04, 0x00, 0xc0, 0x03, 0x00,
   0x63, 0x09, 0x00, 0x00, 0x3c, 0x01, 0x00, 0xa6, 0x04, 0x00, 0x78, 0x02,
   0x00, 0x4c, 0x09, 0x00, 0x00, 0xc3, 0x01, 0x00, 0xa8, 0x06, 0x00, 0x86,
   0x03, 0x00, 0x50, 0x09, 0x00, 0xc0, 0x11, 0x01, 0x00, 0xa8, 0x04, 0x00,
   0x03, 0x02, 0x00, 0x50, 0x09, 0x00, 0x30, 0x60, 0x01, 0x00, 0xa8, 0x04,
   0xe0, 0x60, 0x03, 0x00, 0x50, 0x19, 0x00, 0x70, 0x40, 0x01, 0x00, 0xa8,
   0x0f, 0xe0, 0x80, 0x02, 0x00, 0x50, 0x1f, 0x00, 0xd0, 0x51, 0x01, 0x00,
   0xa8, 0x09, 0xa0, 0xa3, 0x02, 0x00, 0xd0, 0x15, 0x00, 0x10, 0x47, 0x01,
   0x00, 0xf8, 0x0a, 0x20, 0x8e, 0x02, 0x00, 0xb0, 0x15, 0x00, 0xb0, 0xbc,
   0x01, 0x00, 0x0c, 0x0d, 0x60, 0x79, 0x03, 0x00, 0x38, 0x1a, 0x00, 0xb0,
   0x72, 0x01, 0x00, 0x6d, 0x09, 0xa0, 0xca, 0x02, 0x00, 0xca, 0x12, 0x00,
   0x50, 0xc5, 0x01, 0xc0, 0x49, 0x0d, 0xa0, 0xaa, 0x03, 0x80, 0x2b, 0x15,
   0x00, 0x90, 0x2a, 0x07, 0x70, 0xaa, 0x0a, 0xa0, 0x54, 0x0e, 0xe0, 0x54,
   0x15, 0x00, 0xb0, 0x54, 0x1c, 0x8c, 0xaa, 0x0c, 0xa0, 0x4a, 0x39, 0x18,
   0xa9, 0x1a, 0x00, 0x50, 0xd5, 0x72, 0x47, 0x54, 0x09, 0xa0, 0x54, 0xe5,
   0x0e, 0x95, 0x12, 0x00, 0x90, 0xa4, 0xca, 0x90, 0x92, 0x0a, 0xa0, 0x4a,
   0x95, 0x21, 0x29, 0x15, 0x00, 0x50, 0x95, 0xaa, 0x41, 0xaa, 0x0a, 0x60,
   0x29, 0x55, 0x23, 0xa9, 0x14, 0x00, 0x50, 0x52, 0xa9, 0x88, 0x48, 0x0d,
   0x20, 0x55, 0x52, 0x01, 0x25, 0x15, 0x00, 0xb0, 0x4a, 0xaa, 0x91, 0x2a,
   0x09, 0x20, 0x49, 0x55, 0x53, 0x54, 0x15, 0x00, 0x90, 0x54, 0xa5, 0x40,
   0xa4, 0x0a, 0x60, 0x2a, 0x25, 0x81, 0x24, 0x15, 0x00, 0xf0, 0x22, 0x95,
   0x09, 0x95, 0x0a, 0xc0, 0xa5, 0x54, 0x93, 0x54, 0x15, 0x00, 0x80, 0x95,
   0xa4, 0x50, 0x54, 0x0e, 0x80, 0x4a, 0xa9, 0x01, 0x49, 0x1a, 0x00, 0x00,
   0x57, 0xa9, 0x41, 0x91, 0x03, 0x00, 0x4e, 0x12, 0x43, 0x52, 0x07, 0x00,
   0x00, 0x4c, 0x8a, 0x80, 0xea, 0x00, 0x00, 0x38, 0x29, 0x11, 0xc9, 0x01,
   0x00, 0x00, 0x70, 0xb2, 0x29, 0x32, 0x00, 0x00, 0x60, 0x52, 0x43, 0x72,
   0x00, 0x00, 0x00, 0xc0, 0x84, 0x80, 0x0e, 0x00, 0x00, 0xc0, 0x49, 0x01,
   0x1d, 0x00, 0x00, 0x00, 0x80, 0xab, 0x09, 0x03, 0x00, 0x00, 0x00, 0x17,
   0x23, 0x06, 0x00, 0x00, 0x00, 0x00, 0x86, 0xe0, 0x00, 0x00, 0x00, 0x00,
   0x4c, 0xc9, 0x01, 0x00, 0x00, 0x00, 0x00, 0xb8, 0x39, 0x00, 0x00, 0x00,
   0x00, 0x70, 0x71, 0x00, 0x00, 0x00, 0x00, 0x00, 0xe0, 0x0e, 0x00, 0x00,
   0x00, 0x00, 0xc0, 0x0f, 0x00, 0x00, 0x00, 0x00, 0x00, 0x80, 0x01, 0x00,
   0x00, 0x00, 0x00, 0x00, 0x05, 0x00, 0x00, 0x00, 0x00, 0x00, 0x00, 0x00,
   0x00, 0x00, 0x00, 0x00, 0x00, 0x00, 0x00, 0x00, 0x00, 0x00, 0x00, 0x00,
   0x00, 0x00, 0x00, 0x00, 0x00, 0x00, 0x00, 0x00, 0x00, 0x00, 0x00, 0x00,
   0x00, 0x00, 0x00, 0x00, 0x00, 0x00, 0x00, 0x00, 0x00, 0x00, 0x00, 0x00,
   0x00, 0x00, 0x00, 0x00, 0x00, 0x00, 0x00, 0x00, 0x00, 0x00, 0x00, 0x00,
   0x00, 0x00, 0x00, 0x00, 0x00, 0x00, 0x00, 0x00, 0x00, 0x00, 0x00, 0x00,
   0x00, 0x00, 0x00, 0x00, 0x00, 0x00, 0x00, 0x00, 0x00, 0x00, 0x00, 0x00,
   0x00, 0x00, 0x00, 0x00, 0x00, 0x00, 0x00, 0x00, 0x00, 0x00, 0x00, 0x00,
   0x00, 0x00, 0x00, 0x00, 0x00, 0x00, 0x00, 0x00, 0x00, 0x00, 0x00, 0x00,
   0x00, 0x00, 0x00, 0x00 };
